<?xml version="1.0" encoding="UTF-8" standalone="no"?>
<svg
   xmlns:dc="http://purl.org/dc/elements/1.1/"
   xmlns:cc="http://creativecommons.org/ns#"
   xmlns:rdf="http://www.w3.org/1999/02/22-rdf-syntax-ns#"
   xmlns:svg="http://www.w3.org/2000/svg"
   xmlns="http://www.w3.org/2000/svg"
   xmlns:sodipodi="http://sodipodi.sourceforge.net/DTD/sodipodi-0.dtd"
   xmlns:inkscape="http://www.inkscape.org/namespaces/inkscape"
   width="36.148563"
   height="39.497292"
   id="svg2"
   version="1.1"
   inkscape:version="0.91 r13725"
   sodipodi:docname="bus.svg">
  <metadata
     id="metadata43">
    <rdf:RDF>
      <cc:Work
         rdf:about="">
        <dc:format>image/svg+xml</dc:format>
        <dc:type
           rdf:resource="http://purl.org/dc/dcmitype/StillImage" />
        <dc:title></dc:title>
      </cc:Work>
    </rdf:RDF>
  </metadata>
  <defs
     id="defs41" />
  <sodipodi:namedview
     pagecolor="#ffffff"
     bordercolor="#666666"
     borderopacity="1"
     objecttolerance="10"
     gridtolerance="10"
     guidetolerance="10"
     inkscape:pageopacity="0"
     inkscape:pageshadow="2"
     inkscape:window-width="2048"
     inkscape:window-height="1089"
     id="namedview39"
     showgrid="false"
     fit-margin-top="0"
     fit-margin-left="0"
     fit-margin-right="0"
     fit-margin-bottom="0"
     inkscape:zoom="14.690864"
     inkscape:cx="25.645057"
     inkscape:cy="19.671668"
     inkscape:window-x="-8"
     inkscape:window-y="-8"
     inkscape:window-maximized="1"
     inkscape:current-layer="svg2" />
  <path
     inkscape:connector-curvature="0"
     d="m 34.316137,9.6578882 c -0.322495,-3.15284 -0.836231,-5.607655 -1.649002,-6.572544 -3.351036,-3.967344 -26.824778,-4.25768 -29.489957,0 -0.651952,1.043123 -1.109187,3.489246 -1.416039,6.57776 C 0.771041,9.7795862 0,10.613215 0,11.633738 L 0,15.4959 c 0,0.858835 0.544162,1.582937 1.303904,1.865452 -0.179939,6.083143 -0.033902,12.429682 0.235571,15.585997 0,2.436565 1.636834,2.032352 1.636834,2.032352 l 1.534259,0 0,2.630405 c 0,1.043125 1.075286,1.887184 2.400052,1.887184 1.326505,0 2.401791,-0.844059 2.401791,-1.887184 l 0,-2.630405 17.849571,0 0,2.630405 c 0,1.043125 1.074417,1.887184 2.400925,1.887184 1.324764,0 2.400047,-0.844059 2.400047,-1.887184 l 0,-2.630405 0.504181,0 c 0,0 1.9263,0.264256 2.049736,-0.883183 0,-3.147621 0.198193,-10.123507 0.03477,-16.708221 0.807552,-0.252956 1.396919,-0.997049 1.396919,-1.892397 l 0,-3.862162 c 8.66e-4,-1.044864 -0.807552,-1.8923998 -1.832424,-1.9758498 z m -25.40613,-6.00665 18.024294,0 0,2.726897 -18.024294,0 0,-2.726897 z M 9.167311,31.873797 c -1.415171,0 -2.561736,-1.14743 -2.561736,-2.562599 0,-1.414307 1.146565,-2.560871 2.561736,-2.560871 1.415171,0 2.562604,1.146564 2.562604,2.560871 0,1.415169 -1.146564,2.562599 -2.562604,2.562599 z m 17.670501,0 c -1.414301,0 -2.563475,-1.14743 -2.563475,-2.562599 0,-1.414307 1.148308,-2.560871 2.563475,-2.560871 1.415167,0 2.561741,1.146564 2.561741,2.560871 8.7e-4,1.415169 -1.146568,2.562599 -2.561741,2.562599 z m 3.257156,-11.21357 -24.345623,0 0,-12.7695638 24.345623,0 0,12.7695638 z"
     id="svg_2"
     stroke="null"
     style="fill:#003377;fill-opacity:1" />
  <g
     id="svg_3"
     stroke="null"
     transform="translate(-4.643786,-3.5560238)" />
  <g
     id="svg_4"
     stroke="null"
     transform="translate(-4.643786,-3.5560238)" />
  <g
     id="svg_5"
     stroke="null"
     transform="translate(-4.643786,-3.5560238)" />
  <g
     id="svg_6"
     stroke="null"
     transform="translate(-4.643786,-3.5560238)" />
  <g
     id="svg_7"
     stroke="null"
     transform="translate(-4.643786,-3.5560238)" />
  <g
     id="svg_8"
     stroke="null"
     transform="translate(-4.643786,-3.5560238)" />
  <g
     id="svg_9"
     stroke="null"
     transform="translate(-4.643786,-3.5560238)" />
  <g
     id="svg_10"
     stroke="null"
     transform="translate(-4.643786,-3.5560238)" />
  <g
     id="svg_11"
     stroke="null"
     transform="translate(-4.643786,-3.5560238)" />
  <g
     id="svg_12"
     stroke="null"
     transform="translate(-4.643786,-3.5560238)" />
  <g
     id="svg_13"
     stroke="null"
     transform="translate(-4.643786,-3.5560238)" />
  <g
     id="svg_14"
     stroke="null"
     transform="translate(-4.643786,-3.5560238)" />
  <g
     id="svg_15"
     stroke="null"
     transform="translate(-4.643786,-3.5560238)" />
  <g
     id="svg_16"
     stroke="null"
     transform="translate(-4.643786,-3.5560238)" />
  <g
     id="svg_17"
     stroke="null"
     transform="translate(-4.643786,-3.5560238)" />
  <g
     id="svg_18"
     transform="translate(-4.643786,-3.5560238)" />
  <g
     id="svg_19"
     transform="translate(-4.643786,-3.5560238)" />
  <g
     id="svg_20"
     transform="translate(-4.643786,-3.5560238)" />
  <g
     id="svg_21"
     transform="translate(-4.643786,-3.5560238)" />
  <g
     id="svg_22"
     transform="translate(-4.643786,-3.5560238)" />
  <g
     id="svg_23"
     transform="translate(-4.643786,-3.5560238)" />
  <g
     id="svg_24"
     transform="translate(-4.643786,-3.5560238)" />
  <g
     id="svg_25"
     transform="translate(-4.643786,-3.5560238)" />
  <g
     id="svg_26"
     transform="translate(-4.643786,-3.5560238)" />
  <g
     id="svg_27"
     transform="translate(-4.643786,-3.5560238)" />
  <g
     id="svg_28"
     transform="translate(-4.643786,-3.5560238)" />
  <g
     id="svg_29"
     transform="translate(-4.643786,-3.5560238)" />
  <g
     id="svg_30"
     transform="translate(-4.643786,-3.5560238)" />
  <g
     id="svg_31"
     transform="translate(-4.643786,-3.5560238)" />
  <g
     id="svg_32"
     transform="translate(-4.643786,-3.5560238)" />
</svg>
