<?xml version="1.0" encoding="UTF-8" standalone="no"?>
<!-- Generator: Adobe Illustrator 18.0.0, SVG Export Plug-In . SVG Version: 6.00 Build 0)  -->

<svg
   xmlns:dc="http://purl.org/dc/elements/1.1/"
   xmlns:cc="http://creativecommons.org/ns#"
   xmlns:rdf="http://www.w3.org/1999/02/22-rdf-syntax-ns#"
   xmlns:svg="http://www.w3.org/2000/svg"
   xmlns="http://www.w3.org/2000/svg"
   xmlns:sodipodi="http://sodipodi.sourceforge.net/DTD/sodipodi-0.dtd"
   xmlns:inkscape="http://www.inkscape.org/namespaces/inkscape"
   version="1.1"
   id="Capa_1"
   x="0px"
   y="0px"
   viewBox="0 0 62.226563 38.046875"
   xml:space="preserve"
   inkscape:version="0.91 r13725"
   sodipodi:docname="json.svg"
   width="62.226562"
   height="38.046875"><metadata
     id="metadata17"><rdf:RDF><cc:Work
         rdf:about=""><dc:format>image/svg+xml</dc:format><dc:type
           rdf:resource="http://purl.org/dc/dcmitype/StillImage" /><dc:title></dc:title></cc:Work></rdf:RDF></metadata><defs
     id="defs15" /><sodipodi:namedview
     pagecolor="#ffffff"
     bordercolor="#666666"
     borderopacity="1"
     objecttolerance="10"
     gridtolerance="10"
     guidetolerance="10"
     inkscape:pageopacity="0"
     inkscape:pageshadow="2"
     inkscape:window-width="1528"
     inkscape:window-height="1023"
     id="namedview13"
     showgrid="false"
     fit-margin-top="0"
     fit-margin-left="0"
     fit-margin-right="0"
     fit-margin-bottom="0"
     inkscape:zoom="4.0689655"
     inkscape:cx="24.527874"
     inkscape:cy="27.317269"
     inkscape:window-x="0"
     inkscape:window-y="0"
     inkscape:window-maximized="0"
     inkscape:current-layer="Capa_1" /><g
     style="font-style:normal;font-weight:normal;font-size:40px;line-height:125%;font-family:sans-serif;letter-spacing:0px;word-spacing:0px;fill:#003377;fill-opacity:1;stroke:none;stroke-width:1px;stroke-linecap:butt;stroke-linejoin:miter;stroke-opacity:1"
     id="text4158"><path
       d="m 18.359375,38.046875 -2.929687,0 q -3.496094,0 -5.6835942,-1.953125 Q 7.578125,34.160156 7.578125,30.488281 l 0,-2.910156 q 0,-3.300781 -1.6210938,-5.15625 -1.6210937,-1.875 -4.96093745,-1.875 L 0,20.546875 0,17.5 l 0.99609375,0 q 3.33984375,0 4.96093745,-1.855469 1.6210938,-1.875 1.6210938,-5.175781 l 0,-2.9101563 q 0,-3.6718749 2.1679688,-5.6054687 Q 11.933594,0 15.429688,0 l 2.929687,0 0,2.6953125 -2.226563,0 q -2.656249,0 -3.867187,1.2304688 Q 11.074219,5.15625 11.074219,7.890625 l 0,3.417969 q 0,2.714844 -1.5039065,4.570312 -1.5039062,1.835938 -4.1796875,2.910156 l 0,0.46875 q 2.6757813,1.074219 4.1796875,2.929688 1.5039065,1.835937 1.5039065,4.550781 l 0,3.417969 q 0,2.734375 1.191406,3.964844 1.210938,1.230468 3.867187,1.230468 l 2.226563,0 0,2.695313 z"
       style=""
       id="path4163" /><path
       d="m 36.582031,22.832031 q 0,3.828125 -2.34375,5.898438 -2.324219,2.070312 -6.25,2.070312 -0.9375,0 -2.5,-0.175781 -1.5625,-0.15625 -2.617187,-0.390625 l 0,-3.613281 0.214843,0 q 0.800782,0.273437 1.972657,0.566406 1.171875,0.292969 2.402343,0.292969 1.796875,0 2.851563,-0.410157 1.074219,-0.410156 1.582031,-1.171875 0.527344,-0.78125 0.664063,-1.914062 0.15625,-1.132813 0.15625,-2.617188 l 0,-16.9726558 -6.152344,0 0,-3.0859375 10.019531,0 0,21.5234373 z"
       style=""
       id="path4165" /><path
       d="m 62.226562,20.546875 -0.996093,0 q -3.339844,0 -4.960938,1.875 -1.621094,1.855469 -1.621094,5.15625 l 0,2.910156 q 0,3.671875 -2.1875,5.605469 -2.167968,1.953125 -5.664062,1.953125 l -2.929688,0 0,-2.695313 2.226563,0 q 2.65625,0 3.847656,-1.230468 1.210938,-1.230469 1.210938,-3.964844 l 0,-3.417969 q 0,-2.714844 1.503906,-4.550781 1.503906,-1.855469 4.179687,-2.929688 l 0,-0.46875 Q 54.160156,17.714844 52.65625,15.878906 51.152344,14.023438 51.152344,11.308594 l 0,-3.417969 q 0,-2.734375 -1.210938,-3.9648437 Q 48.75,2.6953125 46.09375,2.6953125 l -2.226563,0 0,-2.6953125 2.929688,0 q 3.496094,0 5.664062,1.953125 2.1875,1.9335938 2.1875,5.6054687 l 0,2.9101563 q 0,3.300781 1.621094,5.175781 Q 57.890625,17.5 61.230469,17.5 l 0.996093,0 0,3.046875 z"
       style=""
       id="path4167" /></g></svg>