<?xml version="1.0" encoding="UTF-8" standalone="no"?>
<!-- Svg Vector Icons : http://www.onlinewebfonts.com/icon -->

<svg
   xmlns:dc="http://purl.org/dc/elements/1.1/"
   xmlns:cc="http://creativecommons.org/ns#"
   xmlns:rdf="http://www.w3.org/1999/02/22-rdf-syntax-ns#"
   xmlns:svg="http://www.w3.org/2000/svg"
   xmlns="http://www.w3.org/2000/svg"
   xmlns:sodipodi="http://sodipodi.sourceforge.net/DTD/sodipodi-0.dtd"
   xmlns:inkscape="http://www.inkscape.org/namespaces/inkscape"
   version="1.1"
   x="0px"
   y="0px"
   viewBox="0 0 979.975 979.89998"
   enable-background="new 0 0 1000 1000"
   xml:space="preserve"
   id="svg2"
   inkscape:version="0.91 r13725"
   sodipodi:docname="nolabels.svg"
   width="979.97498"
   height="979.8999"><defs
     id="defs14" /><sodipodi:namedview
     pagecolor="#ffffff"
     bordercolor="#666666"
     borderopacity="1"
     objecttolerance="10"
     gridtolerance="10"
     guidetolerance="10"
     inkscape:pageopacity="0"
     inkscape:pageshadow="2"
     inkscape:window-width="2048"
     inkscape:window-height="1089"
     id="namedview12"
     showgrid="false"
     fit-margin-top="0"
     fit-margin-left="0"
     fit-margin-right="0"
     fit-margin-bottom="0"
     inkscape:zoom="0.45254834"
     inkscape:cx="633.00609"
     inkscape:cy="530.00534"
     inkscape:window-x="-8"
     inkscape:window-y="-8"
     inkscape:window-maximized="1"
     inkscape:current-layer="svg2" /><metadata
     id="metadata4"> Svg Vector Icons : http://www.onlinewebfonts.com/icon <rdf:RDF><cc:Work
     rdf:about=""><dc:format>image/svg+xml</dc:format><dc:type
       rdf:resource="http://purl.org/dc/dcmitype/StillImage" /><dc:title></dc:title></cc:Work></rdf:RDF></metadata><path
     inkscape:connector-curvature="0"
     id="path8"
     d="m 202.04997,138.65 c -8.3,-9.5 -19.8,-15.9 -33.4,-15.9 -25.3,0 -45.9,20.6 -45.9,45.9 0,14.4 7.2,26.5 17.6,34.9 l 2.7,2 c 7.4,5.2 15.9,8.9 25.6,8.9 25.3,0 45.9,-20.5 45.9,-45.9 0,-9.7 -3.7,-18.3 -8.9,-25.7 l -3.6,-4.2 z"
     style="fill:#ff0000;fill-opacity:1;stroke:none;stroke-width:24.50000191;stroke-miterlimit:4;stroke-dasharray:none;stroke-opacity:1" /><path
     inkscape:connector-curvature="0"
     id="path10"
     d="m 953.04997,529.55 -503.1,-503.2 c -11.1,-11.1 -24.5,-18.4 -38.6,-22.6 -2.2,-1.1 -4.7,-1.6 -7.2,-2.1 -1,-0.2 -1.9,-0.4 -2.9,-0.6 -1.1,-0.1 -2.1,-0.6 -3.2,-0.6 l -3.5,0 c -6.2,-0.6 -12.5,-0.6 -18.7,0 l -344.800001,0 c -16.9,0 -30.59999952,13.7 -30.59999952,30.6 l 0,30.6 0,46.2 0,267.9 c -0.6,6.2 -0.6,12.4 0,18.7 l 0,3.6 c 0,1.2 0.60000002,2.1 0.60000002,3.2 0.2,0.9 0.4,1.9 0.6,2.9 0.6,2.5 1,5 2.1,7.2 4.2,14.1 11.4999995,27.5 22.5999995,38.6 l 503.100001,503.1 c 35.8,35.79998 93.9,35.79998 129.8,0 l 293.8,-293.8 c 35.90005,-35.8 35.90005,-93.9 0,-129.7 z m -52.6,110.5 -270.1,257.9 c -23.9,23.9 -62.6,23.9 -86.5,0 L 61.349969,405.05 c 0.3,-1.7 0.3,-5.3 0.3,-7 l 0,-63.7 0,-48.4 0,-0.9 0,-95 0,-128.5 195.200001,0 28.3,0 0.9,0 25.4,0 86.8,0 c 3.1,0 7.7,0.9 10.5,0.1 l 491.9,491.9 c 23.7,23.9 23.7,62.7 -0.2,86.5 z"
     style="fill:#ff0000;fill-opacity:1;stroke:none;stroke-width:24.50000191;stroke-miterlimit:4;stroke-dasharray:none;stroke-opacity:1" /></svg>