<?xml version="1.0" encoding="UTF-8" standalone="no"?>
<svg
   xmlns:dc="http://purl.org/dc/elements/1.1/"
   xmlns:cc="http://creativecommons.org/ns#"
   xmlns:rdf="http://www.w3.org/1999/02/22-rdf-syntax-ns#"
   xmlns:svg="http://www.w3.org/2000/svg"
   xmlns="http://www.w3.org/2000/svg"
   xmlns:sodipodi="http://sodipodi.sourceforge.net/DTD/sodipodi-0.dtd"
   xmlns:inkscape="http://www.inkscape.org/namespaces/inkscape"
   width="20"
   height="20"
   viewBox="0 0 20 20"
   version="1.1"
   id="svg2"
   inkscape:version="0.91 r13725"
   sodipodi:docname="reload yellow.svg">
  <metadata
     id="metadata15">
    <rdf:RDF>
      <cc:Work
         rdf:about="">
        <dc:format>image/svg+xml</dc:format>
        <dc:type
           rdf:resource="http://purl.org/dc/dcmitype/StillImage" />
        <dc:title>icon/reload yellow</dc:title>
      </cc:Work>
    </rdf:RDF>
  </metadata>
  <sodipodi:namedview
     pagecolor="#ffffff"
     bordercolor="#666666"
     borderopacity="1"
     objecttolerance="10"
     gridtolerance="10"
     guidetolerance="10"
     inkscape:pageopacity="0"
     inkscape:pageshadow="2"
     inkscape:window-width="2048"
     inkscape:window-height="1089"
     id="namedview13"
     showgrid="false"
     fit-margin-top="0"
     fit-margin-left="0"
     fit-margin-right="0"
     fit-margin-bottom="0"
     inkscape:zoom="11.8"
     inkscape:cx="-2.5"
     inkscape:cy="10"
     inkscape:window-x="-8"
     inkscape:window-y="-8"
     inkscape:window-maximized="1"
     inkscape:current-layer="svg2" />
  <!-- Generator: Sketch 3.8.3 (29802) - http://www.bohemiancoding.com/sketch -->
  <title
     id="title4">icon/reload yellow</title>
  <desc
     id="desc6">Created with Sketch.</desc>
  <defs
     id="defs8" />
  <g
     style="fill:#fffff0;fill-opacity:1;fill-rule:evenodd;stroke:none;stroke-width:1"
     id="icon/reload-yellow">
    <path
       inkscape:connector-curvature="0"
       id="Combined-Shape"
       d="M 7.5,15 C 4.65125,14.41875 2.5,11.7675 2.5,8.75 2.5,7.3375 2.98875,6.0475 3.78125,5 L 0.855,5 C 0.3125,6.1375 0,7.40625 0,8.75 c 0,4.40625 3.26125,8.1425 7.5,8.75 l 0,2.5 5,-3.75 -5,-3.75 0,2.5 z m 5,-12.5 0,-2.5 -5,3.75 5,3.75 0,-2.5 c 2.84875,0.58125 5,3.2325 5,6.25 0,1.4125 -0.48875,2.7025 -1.28125,3.75 L 19.145,15 C 19.6875,13.8625 20,12.59375 20,11.25 20,6.84375 16.73875,3.1075 12.5,2.5 Z"
       style="fill:#fffff0;fill-opacity:1" />
  </g>
</svg>
