<svg width="455.416" height="455.416" xmlns="http://www.w3.org/2000/svg">
 <g>
  <title>Layer 1</title>
  <path fill="#003377" stroke="null" id="svg_3" d="m239.589569,78.242989c0.324921,8.700958 0.648163,17.401909 0.973938,26.102867c-6.284241,0 -9.425079,0 -15.708496,0c0.324097,-8.700958 0.648987,-17.401909 0.97226,-26.102867c-12.742554,0 -25.484299,0 -38.226852,0c-25.615936,104.87397 -51.236038,209.745262 -76.851135,314.621025c34.451172,0 68.902344,0 103.352661,0c0.324081,-8.701843 0.648163,-17.402802 0.973083,-26.102844c11.756149,0 23.512283,0 35.267624,0c0.326569,8.700928 0.649811,17.401001 0.973083,26.102844c34.451141,0 68.901459,0 103.352631,0c-25.615906,-104.873962 -51.235168,-209.74614 -76.851105,-314.621025c-12.74173,0 -25.484283,0 -38.227692,0zm-16.193329,65.186195c6.20755,0 12.415131,-0.003586 18.623535,-0.001785c0.901459,24.194366 1.802032,48.390518 2.705139,72.583984c-8.011261,0 -16.021729,0 -24.033813,0c0.904755,-24.192581 1.80452,-48.387833 2.705139,-72.582199zm-6.865753,184.247726c0.900589,-24.193451 1.803696,-48.387817 2.705124,-72.581299c8.981857,0 17.96373,-0.00177 26.944778,-0.00177c0.902252,24.193451 1.804535,48.389618 2.705109,72.583069c-10.783875,0 -21.570282,0 -32.355011,0z"/>
  <path fill="#003377" stroke="null" id="svg_4" d="m302.874146,78.242989c-5.205292,0 -7.808807,0 -13.01416,0c32.459167,104.87397 64.910828,209.747032 97.371704,314.621025c11.727814,0 23.456482,0 35.184296,0c-39.845612,-104.875763 -79.693695,-209.747055 -119.54184,-314.621025z"/>
  <path fill="#003377" stroke="null" id="svg_5" d="m162.54184,78.242989c-39.848114,104.87487 -79.697067,209.745262 -119.54184,314.621025c11.728653,0 23.456482,0 35.185135,0c32.45668,-104.873962 64.912521,-209.74614 97.370865,-314.621017c-5.205338,-0.000008 -7.808838,-0.000008 -13.01416,-0.000008z"/>
 </g>
</svg>