<?xml version="1.0" encoding="UTF-8" standalone="no"?>
<svg
   xmlns:dc="http://purl.org/dc/elements/1.1/"
   xmlns:cc="http://creativecommons.org/ns#"
   xmlns:rdf="http://www.w3.org/1999/02/22-rdf-syntax-ns#"
   xmlns:svg="http://www.w3.org/2000/svg"
   xmlns="http://www.w3.org/2000/svg"
   xmlns:xlink="http://www.w3.org/1999/xlink"
   id="svg4172"
   version="1.1"
   viewBox="0 0 23 37"
   height="37px"
   width="23px">
  <metadata
     id="metadata4192">
    <rdf:RDF>
      <cc:Work
         rdf:about="">
        <dc:format>image/svg+xml</dc:format>
        <dc:type
           rdf:resource="http://purl.org/dc/dcmitype/StillImage" />
        <dc:title>map overlay/station clustered </dc:title>
      </cc:Work>
    </rdf:RDF>
  </metadata>
  <!-- Generator: Sketch 3.8.3 (29802) - http://www.bohemiancoding.com/sketch -->
  <title
     id="title4174">map overlay/station clustered </title>
  <desc
     id="desc4176">Created with Sketch.</desc>
  <defs
     id="defs4178">
    <rect
       height="310"
       width="501"
       y="-55"
       x="-116"
       id="path-1" />
    <mask
       fill="white"
       height="310"
       width="501"
       y="0"
       x="0"
       maskUnits="objectBoundingBox"
       maskContentUnits="userSpaceOnUse"
       id="mask-2">
      <use
         id="use4182"
         xlink:href="#path-1" />
    </mask>
  </defs>
  <g
     transform="translate(2,3)"
     id="Group"
     style="fill:none;fill-rule:evenodd;stroke:none;stroke-width:1">
    <path
       style="fill:#003377"
       id="Shape"
       d="m 8.4,29.298258 0,-0.453553 0,-7.153255 C 3.6507882,21.008457 0,16.902006 0,11.938258 0,6.9745108 3.6507882,2.8680597 8.4,2.1850661 l 0,-0.56897 c 0,-0.77737811 0.6268014,-1.40756757 1.4,-1.40756757 0.773199,0 1.4,0.63018946 1.4,1.40756757 l 0,0.56897 c 4.749212,0.6829936 8.4,4.7894447 8.4,9.7531919 0,4.963748 -3.650788,9.070199 -8.4,9.753192 l 0,7.153255 0,0.453553 2.8,0 0.466667,0 0,0.938379 -0.466667,0 -2.8,0 0,0.01563 -2.8,0 0,-0.01563 -2.8,0 -0.4666667,0 0,-0.938379 0.4666667,0 2.8,0 z" />
    <ellipse
       style="fill:#ffffff"
       ry="7.037838"
       rx="7"
       cy="11.938258"
       cx="9.8000002"
       id="Oval-13-Copy" />
  </g>
  <use
     id="Rectangle-136"
     mask="url(#mask-2)"
     xlink:href="#path-1"
     style="fill:none;fill-rule:evenodd;stroke:#505050;stroke-width:4;stroke-linecap:square"
     x="0"
     y="0"
     width="100%"
     height="100%" />
</svg>
