<svg width="390" height="390" xmlns="http://www.w3.org/2000/svg">
  <g style="fill:#003377;fill-opacity:1" >
  <title>Layer 1</title>
  <path d="m340.384766,173.735092l31.219025,0c-4.673218,-39.459625 -22.307343,-75.974045 -50.835632,-104.503242c-28.529175,-28.528301 -65.04274,-46.162409 -104.50325,-50.83563l0,31.21903c64.030197,9.325581 114.794266,60.089661 124.119858,124.119843z" id="svg_3" stroke="null"/>
  <path d="m173.735092,49.61525l0,-31.21903c-39.459625,4.673222 -75.974045,22.307329 -104.503242,50.83563c-28.528301,28.529198 -46.162409,65.042717 -50.83563,104.503242l31.21903,0c9.325581,-64.030182 60.089661,-114.794262 124.119843,-124.119843z" id="svg_4" stroke="null"/>
  <path d="m216.264908,340.384766l0,31.219025c39.45871,-4.673218 75.974075,-22.307343 104.50325,-50.835632c28.52829,-28.529175 46.162415,-65.04274 50.835632,-104.50325l-31.219025,0c-9.325592,64.030197 -60.089661,114.794266 -124.119858,124.119858z" id="svg_5" stroke="null"/>
  <path d="m49.61525,216.264908l-31.21903,0c4.673222,39.45871 22.307329,75.974075 50.83563,104.50325c28.529198,28.52829 65.042717,46.162415 104.503242,50.835632l0,-31.219025c-64.030182,-9.325592 -114.794262,-60.089661 -124.119843,-124.119858z" id="svg_6" stroke="null"/>
  <path d="m116.634109,173.735092c7.527847,-27.709595 29.391388,-49.573135 57.100983,-57.100983l0,-31.732529c-44.80574,8.638191 -80.19532,44.027771 -88.833511,88.833511l31.732529,0z" id="svg_7" stroke="null"/>
  <path d="m116.634109,216.264908l-31.732529,0c8.638191,44.80574 44.027771,80.195328 88.833511,88.832596l0,-31.731598c-27.709595,-7.526947 -49.574036,-29.391403 -57.100983,-57.100998z" id="svg_8" stroke="null"/>
  <path d="m273.365906,216.264908c-7.527863,27.709595 -29.391434,49.57225 -57.100998,57.100998l0,31.731598c44.80574,-8.637268 80.195328,-44.026855 88.833511,-88.832596l-31.732513,0z" id="svg_9" stroke="null"/>
  <path d="m273.365906,173.735092l31.732513,0c-8.638184,-44.80574 -44.027771,-80.19532 -88.833511,-88.833488l0,31.732506c27.709595,7.526947 49.574051,29.391388 57.100998,57.100983z" id="svg_10" stroke="null"/>
   </g>
</svg>