<?xml version="1.0" encoding="UTF-8" standalone="no"?>
<svg
   xmlns:dc="http://purl.org/dc/elements/1.1/"
   xmlns:cc="http://creativecommons.org/ns#"
   xmlns:rdf="http://www.w3.org/1999/02/22-rdf-syntax-ns#"
   xmlns:svg="http://www.w3.org/2000/svg"
   xmlns="http://www.w3.org/2000/svg"
   xmlns:sodipodi="http://sodipodi.sourceforge.net/DTD/sodipodi-0.dtd"
   xmlns:inkscape="http://www.inkscape.org/namespaces/inkscape"
   height="1000"
   width="937.5"
   id="svg2"
   version="1.1"
   inkscape:version="0.91 r13725"
   sodipodi:docname="upload.svg">
  <metadata
     id="metadata10">
    <rdf:RDF>
      <cc:Work
         rdf:about="">
        <dc:format>image/svg+xml</dc:format>
        <dc:type
           rdf:resource="http://purl.org/dc/dcmitype/StillImage" />
        <dc:title></dc:title>
      </cc:Work>
    </rdf:RDF>
  </metadata>
  <defs
     id="defs8" />
  <sodipodi:namedview
     pagecolor="#ffffff"
     bordercolor="#666666"
     borderopacity="1"
     objecttolerance="10"
     gridtolerance="10"
     guidetolerance="10"
     inkscape:pageopacity="0"
     inkscape:pageshadow="2"
     inkscape:window-width="2048"
     inkscape:window-height="1089"
     id="namedview6"
     showgrid="false"
     inkscape:zoom="0.236"
     inkscape:cx="468.75"
     inkscape:cy="500"
     inkscape:window-x="-8"
     inkscape:window-y="-8"
     inkscape:window-maximized="1"
     inkscape:current-layer="svg2" />
  <path
     d="m 0,234.816 0,72.224 q 0,33.184 23.668,56.608 23.668,23.424 56.852,23.424 33.184,0 56.608,-23.424 23.424,-23.424 23.424,-56.608 l 0,-72.224 q 0,-17.568 12.444,-29.768 12.444,-12.2 29.524,-12.2 l 531.92,0 q 17.08,0 29.524,12.2 12.444,12.2 12.444,29.768 l 0,72.224 q 0,33.184 23.424,56.608 23.424,23.424 56.608,23.424 33.184,0 56.852,-23.424 23.668,-23.424 23.668,-56.608 l 0,-72.224 Q 936.96,150.88 877.668,91.344 818.376,31.808 734.44,31.808 l -531.92,0 q -83.936,0 -143.228,59.536 Q 0,150.88 0,234.816 Z m 154.696,358.68 q 0,33.184 23.912,56.608 23.424,23.424 56.608,23.424 33.184,0 56.608,-23.424 l 105.408,-105.408 0,344.04 q 0,33.184 23.424,56.608 23.424,23.424 56.608,23.424 33.184,0 56.852,-23.424 23.668,-23.424 23.668,-56.608 l 0,-344.04 110.288,110.288 q 23.424,23.424 56.608,23.424 33.184,0 56.608,-23.424 23.912,-23.424 23.912,-56.852 0,-33.428 -23.912,-56.852 L 534.36,294.352 q -24.4,-24.4 -57.096,-24.4 -32.208,0 -56.608,24.4 L 178.608,536.4 q -23.912,23.912 -23.912,57.096 z"
     id="path4"
     inkscape:connector-curvature="0"
     style="fill:#003377" />
</svg>
