<svg width="32" height="32" xmlns="http://www.w3.org/2000/svg">
 <g>
  <title>Layer 1</title>
  <path stroke="null" id="svg_3" fill="#003377" d="m22.63689,14.389723l0,-7.030955l-4.634211,-4.632549l-15.276462,0l0,26.547564l19.910671,0l0,-0.048946c3.732422,-0.414803 6.635231,-3.574797 6.63689,-7.417557c-0.001659,-3.844419 -2.904469,-7.004407 -6.63689,-7.417555l0.000002,-0.000002zm-4.979328,-9.661653l2.976646,2.975816l-2.976646,0c0,0 0,-2.975816 0,-2.975816zm-13.272121,22.886486l0,-23.230775l11.614559,0l0,4.978498l4.977667,0l0,5.027444c-0.574921,0.063051 -1.129101,0.197448 -1.659222,0.384941l0,-2.09311l-9.955338,0l0,2.488833l-3.318445,-2.488833l0,8.296114l3.318445,-2.488832l0,2.488832l5.026614,0c-0.030695,0.272942 -0.048944,0.548372 -0.048944,0.829611c0,2.346972 1.085131,4.440079 2.779198,5.80728l-12.734533,0l0,-0.000002zm17.421837,-0.097063c-3.153353,-0.007463 -5.704405,-2.558517 -5.711874,-5.710217c0.007469,-3.153353 2.558521,-5.704405 5.711874,-5.711874c3.151695,0.007467 5.702751,2.558521 5.710217,5.711874c-0.007462,3.151695 -2.558517,5.702751 -5.710217,5.710217z"/>
  <path id="svg_4" d="m18.488834,22.63689l6.63689,0l-3.320107,-3.318445" stroke-linecap="null" stroke-linejoin="null" stroke-dasharray="null" stroke-width="null" stroke="null" fill="#003377"/>
 </g>
</svg>